<svg height="479pt" viewBox="-39 0 479 479.99829" width="479pt" xmlns="http://www.w3.org/2000/svg"><path d="m392.5 72h-384l160 240h64zm0 0" fill="#9bc9ff"/><path d="m232.5 408v-96h-64v160zm0 0" fill="#9bc9ff"/><g fill="#1e81ce"><path d="m400.5 8c0-4.417969-3.582031-8-8-8h-384c-4.417969 0-8 3.582031-8 8v64 .144531c.019531.929688.203125 1.851563.542969 2.71875.089843.226563.207031.417969.3125.632813.128906.324218.28125.640625.457031.945312l158.6875 237.957032v157.601562c0 3.234375 1.949219 6.152344 4.9375 7.390625s6.429688.550781 8.71875-1.734375l64-64c1.5-1.5 2.34375-3.535156 2.34375-5.65625v-93.601562l158.65625-237.957032c.171875-.304687.324219-.621094.453125-.945312.105469-.214844.226563-.40625.3125-.632813.339844-.867187.523437-1.789062.546875-2.71875 0-.046875 0-.089843 0-.144531zm-384 8h368v48h-368zm208 388.6875-48 48v-132.6875h48zm3.71875-100.6875h-55.441406l-149.328125-224h354.097656zm0 0"/><path d="m200.5 24c-4.417969 0-8 3.582031-8 8v16c0 4.417969 3.582031 8 8 8s8-3.582031 8-8v-16c0-4.417969-3.582031-8-8-8zm0 0"/><path d="m232.5 24c-4.417969 0-8 3.582031-8 8v16c0 4.417969 3.582031 8 8 8s8-3.582031 8-8v-16c0-4.417969-3.582031-8-8-8zm0 0"/><path d="m264.5 24c-4.417969 0-8 3.582031-8 8v16c0 4.417969 3.582031 8 8 8s8-3.582031 8-8v-16c0-4.417969-3.582031-8-8-8zm0 0"/><path d="m296.5 24c-4.417969 0-8 3.582031-8 8v16c0 4.417969 3.582031 8 8 8s8-3.582031 8-8v-16c0-4.417969-3.582031-8-8-8zm0 0"/><path d="m328.5 24c-4.417969 0-8 3.582031-8 8v16c0 4.417969 3.582031 8 8 8s8-3.582031 8-8v-16c0-4.417969-3.582031-8-8-8zm0 0"/><path d="m360.5 24c-4.417969 0-8 3.582031-8 8v16c0 4.417969 3.582031 8 8 8s8-3.582031 8-8v-16c0-4.417969-3.582031-8-8-8zm0 0"/><path d="m168.5 24c-4.417969 0-8 3.582031-8 8v16c0 4.417969 3.582031 8 8 8s8-3.582031 8-8v-16c0-4.417969-3.582031-8-8-8zm0 0"/><path d="m136.5 24c-4.417969 0-8 3.582031-8 8v16c0 4.417969 3.582031 8 8 8s8-3.582031 8-8v-16c0-4.417969-3.582031-8-8-8zm0 0"/><path d="m104.5 24c-4.417969 0-8 3.582031-8 8v16c0 4.417969 3.582031 8 8 8s8-3.582031 8-8v-16c0-4.417969-3.582031-8-8-8zm0 0"/><path d="m72.5 24c-4.417969 0-8 3.582031-8 8v16c0 4.417969 3.582031 8 8 8s8-3.582031 8-8v-16c0-4.417969-3.582031-8-8-8zm0 0"/><path d="m40.5 24c-4.417969 0-8 3.582031-8 8v16c0 4.417969 3.582031 8 8 8s8-3.582031 8-8v-16c0-4.417969-3.582031-8-8-8zm0 0"/></g></svg>